<svg width="1440" height="1024" viewBox="0 0 1440 1024" fill="none" xmlns="http://www.w3.org/2000/svg">
<path opacity="0.5" d="M1451 293.595V897.806C1386 971.865 1336.51 1058.02 1302.5 1156.26C1270 1250.73 1254.89 1348.98 1257.16 1451H1207.28V1385.26C1207.28 1359.55 1209.16 1337.63 1212.93 1319.5L1222.02 1270.76L1232.22 1223.15L1265.08 1112.06C1277.94 1071.24 1291.54 1035.72 1305.9 1005.5C1313.45 988.871 1327.06 967.333 1346.7 940.886L1388.65 878.537L1401.13 841.13L1405.66 801.445C1407.17 753.079 1404.52 689.22 1397.72 609.87L1363.71 306.074C1350.86 184.403 1343.31 82.3781 1341.04 0H1439.67C1438.91 59.7038 1439.29 108.825 1440.8 147.364C1442.31 201.022 1445.71 249.765 1451 293.595ZM1451 1012.3V1309.3C1446.46 1329.71 1443.06 1353.13 1440.8 1379.58L1437.4 1451H1342.17L1341.04 1326.3C1341.04 1276.43 1343.69 1235.24 1348.98 1202.75C1353.52 1173.27 1367.49 1140.4 1390.91 1104.12L1451 1012.3ZM1149.47 1451H1096.19L1101.85 1329.7L1115.46 1208.41C1125.28 1141.15 1134.35 1089 1142.66 1051.97C1155.51 995.289 1171.76 945.409 1191.42 902.333L1227.69 815.056L1250.36 723.237L1258.29 650.686C1259.05 623.475 1255.65 600.047 1248.09 580.4L1200.47 442.105L1152.88 303.81C1134.73 244.861 1121.5 194.981 1113.19 154.169C1101.86 99.0017 1096.19 47.6121 1096.19 0H1149.47C1150.22 82.3781 1161.94 164.751 1184.61 247.12C1207.28 327.234 1239.77 403.567 1282.09 476.117L1252.63 316.274L1225.41 156.432L1212.93 79.3552L1206.16 0H1257.18L1260.57 65.7448L1268.51 131.504L1304.78 367.292L1339.93 604.211C1349.74 682.807 1350.5 758.38 1342.19 830.93L1333.12 878.523C1327.83 895.915 1320.27 910.28 1310.46 921.617L1283.25 949.955C1272.67 961.292 1264.73 971.87 1259.44 981.689C1243.57 1008.15 1229.6 1045.93 1217.51 1095.06L1182.35 1211.82C1168.75 1245.82 1159.68 1285.12 1155.14 1329.71C1151.37 1359.94 1149.48 1400.37 1149.48 1451H1149.47ZM1056.53 1451H936.33C915.92 1355.02 907.61 1263.96 911.402 1177.81C915.175 1130.19 923.861 1090.52 937.462 1058.78L980.557 949.955C994.148 909.143 1002.46 870.982 1005.48 835.471C1008.5 809.015 1006.62 783.317 999.826 758.38C993.016 732.678 981.674 709.249 965.8 688.093C943.135 657.864 915.18 627.258 881.932 596.274L868.322 632.549L855.843 671.087C833.179 736.837 809.373 794.65 784.425 844.526C754.196 904.984 720.194 957.51 682.42 1002.1C668.055 1024.01 655.581 1049.71 644.999 1079.18C637.444 1101.86 630.266 1129.82 623.466 1163.06C606.847 1246.2 598.537 1342.17 598.537 1451H504.455L508.982 1273.02C512.754 1208.03 520.686 1148.71 532.778 1095.06C549.416 1024.01 572.845 968.842 603.065 929.54L637.076 893.265L671.087 856.99C695.271 828.279 714.163 795.027 727.764 757.233C740.61 721.723 747.792 684.316 749.311 645.013C750.82 595.137 746.66 534.679 736.832 463.638L709.626 284.541C696.78 177.225 692.253 82.3781 696.045 0H842.276C836.231 117.899 845.299 224.837 869.483 320.816C892.911 409.985 934.096 488.581 993.035 556.604L1065.59 632.549C1095.06 663.533 1116.22 691.493 1129.07 716.431C1154.77 764.043 1159.31 823.37 1142.68 894.411C1132.85 938.995 1113.96 991.517 1086 1051.97C1074.66 1076.91 1065.97 1105.26 1059.93 1137C1054.64 1161.19 1050.86 1190.66 1048.59 1225.41C1044.81 1295.7 1047.45 1370.9 1056.52 1451H1056.53ZM842.276 1451H696.03V1297.96C699.048 1240.53 707.358 1190.28 720.958 1147.2C762.525 1024.77 811.651 914.43 868.336 816.188L894.411 771.976L925.013 731.173C937.104 776.512 931.813 832.434 909.139 898.938C854.726 1062.93 832.429 1246.95 842.247 1451H842.276ZM417.163 1451H260.73L264.126 1367.12L270.931 1283.22L308.337 955.629L343.481 628.022C354.818 511.642 345.749 406.217 316.274 311.747C299.646 341.222 285.286 377.497 273.194 420.572L243.724 533.939C239.188 550.567 236.542 570.973 235.787 595.157L236.919 656.36L228.982 817.334L202.908 969.239C188.553 1039.51 179.489 1090.14 175.716 1121.13C171.943 1147.58 170.434 1178.56 171.189 1214.08L174.584 1307.03L180.243 1379.58C182.516 1406.79 185.921 1430.6 190.458 1451H83.8823V1178.94L82.7505 1091.65C42.7029 1155.13 15.1194 1225.8 0 1303.64V1007.78C56.6857 906.498 92.5835 796.913 107.693 679.024C119.785 590.61 120.162 477.626 108.825 340.071L92.9511 170.057C87.6694 103.543 84.6465 46.8576 83.8823 0H190.444L210.845 164.369L226.719 328.739C238.81 305.31 247.502 276.217 252.793 241.461L261.862 150.773L262.994 75.9453L260.73 0H418.309C419.054 28.7201 422.449 62.3495 428.495 100.888L445.501 199.512L469.297 360.486C475.352 420.19 476.112 474.225 471.575 522.592C466.284 564.158 456.46 611.011 442.105 663.151L399.025 799.182C379.378 864.177 368.041 934.458 365.014 1010.03C364.259 1046.3 367.282 1086.74 374.082 1131.33L396.761 1250.36L406.962 1215.21L472.707 944.282C495.381 844.53 512.764 753.466 524.856 671.087C530.902 632.549 533.924 588.719 533.924 539.598L529.383 406.962L513.523 204.054C506.723 121.676 503.7 53.658 504.455 0H598.537C597.783 86.9052 607.229 182.13 626.876 285.673L650.672 412.635C659.745 461.757 664.282 504.077 664.282 539.598C664.282 576.627 659.373 612.902 649.555 648.423C640.481 683.934 626.876 717.181 608.738 748.165C564.144 838.852 526.36 937.859 495.386 1045.18C468.175 1138.89 445.123 1242.42 426.231 1355.77C419.431 1392.05 416.408 1423.79 417.163 1451ZM0 896.674V286.805L11.3323 350.286L21.5328 414.899L55.5443 617.807L58.9541 640.486L62.3495 674.483C69.9043 753.088 49.1212 827.152 0 896.674ZM937.491 0H1056.5C1052.73 70.2864 1053.49 128.099 1058.78 173.438L1071.26 239.183L1089.4 304.942L1141.53 503.323L1190.28 701.689L1198.21 740.242L1200.47 778.781L1166.47 685.83C1152.86 651.818 1138.13 621.966 1122.26 596.274L1062.19 499.927L999.826 404.698C988.489 385.806 979.42 363.509 972.62 337.807C967.328 319.67 962.797 295.864 959.024 266.389C946.932 180.238 939.75 91.442 937.477 0" fill="url(#paint0_linear_44_1538)"/>
<defs>
<linearGradient id="paint0_linear_44_1538" x1="725.5" y1="0" x2="747.5" y2="673" gradientUnits="userSpaceOnUse">
<stop stop-color="#03194E"/>
<stop offset="1" stop-color="#03194E" stop-opacity="0"/>
</linearGradient>
</defs>
</svg>
